<?xml version="1.0" encoding="UTF-8"?>
<svg width="256" height="256" viewBox="0 0 256 256" fill="none" xmlns="http://www.w3.org/2000/svg">
    <!-- Background Circle -->
    <circle cx="128" cy="128" r="120" fill="#2B2D42"/>
    
    <!-- Keyboard Base -->
    <rect x="48" y="88" width="160" height="80" rx="8" fill="#8D99AE"/>
    <rect x="52" y="92" width="152" height="72" rx="6" fill="#EDF2F4"/>
    
    <!-- Keyboard Keys -->
    <g fill="#2B2D42">
        <!-- Row 1 -->
        <rect x="60" y="100" width="16" height="16" rx="3"/>
        <rect x="84" y="100" width="16" height="16" rx="3"/>
        <rect x="108" y="100" width="16" height="16" rx="3"/>
        <rect x="132" y="100" width="16" height="16" rx="3"/>
        <rect x="156" y="100" width="16" height="16" rx="3"/>
        <rect x="180" y="100" width="16" height="16" rx="3"/>
        
        <!-- Row 2 -->
        <rect x="72" y="120" width="16" height="16" rx="3"/>
        <rect x="96" y="120" width="16" height="16" rx="3"/>
        <rect x="120" y="120" width="16" height="16" rx="3"/>
        <rect x="144" y="120" width="16" height="16" rx="3"/>
        <rect x="168" y="120" width="16" height="16" rx="3"/>
        
        <!-- Row 3 -->
        <rect x="84" y="140" width="88" height="16" rx="3"/>
    </g>
    
    <!-- Sound Wave Effect -->
    <path d="M128 40C128 40 148 58 148 88M128 30C128 30 158 52 158 88M128 20C128 20 168 46 168 88" stroke="#EF233C" stroke-width="4" stroke-linecap="round"/>
    <path d="M128 40C128 40 108 58 108 88M128 30C128 30 98 52 98 88M128 20C128 20 88 46 88 88" stroke="#EF233C" stroke-width="4" stroke-linecap="round"/>
</svg> 